<svg width="97" height="97" viewBox="0 0 97 97" fill="none" xmlns="http://www.w3.org/2000/svg">
<g clip-path="url(#clip0_32_128)">
<path d="M87.3498 45.8312L87.3659 37.835L59.2256 37.7774L59.2095 45.7737L87.3498 45.8312Z" fill="white"/>
<path d="M87.323 59.1584L87.3391 51.1621L59.1988 51.1046L59.1827 59.1008L87.323 59.1584Z" fill="white"/>
<path d="M37.6907 45.7299L37.7068 37.7336L9.56653 37.6761L9.55039 45.6724L37.6907 45.7299Z" fill="white"/>
<path d="M37.6636 59.0569L37.6797 51.0607L9.53942 51.0031L9.52328 58.9994L37.6636 59.0569Z" fill="white"/>
<path d="M45.9402 59.0767L37.9948 59.0575L37.9273 87.3776L45.8728 87.3967L45.9402 59.0767Z" fill="white"/>
<path d="M59.1827 59.1086L51.2372 59.0895L51.1698 87.4095L59.1153 87.4287L59.1827 59.1086Z" fill="white"/>
<path d="M45.7093 9.43262L37.7638 9.41345L37.6963 37.7335L45.6418 37.7527L45.7093 9.43262Z" fill="white"/>
<path d="M58.9518 9.46448L51.0063 9.44531L50.9388 37.7654L58.8843 37.7846L58.9518 9.46448Z" fill="white"/>
<path d="M9.52336 58.9993L9.46617 87.3195L0.196442 87.3003L0.253623 58.9803L9.52336 58.9993Z" fill="white"/>
<path d="M37.9187 96.7065L0.177612 96.6293L0.196448 87.3003L37.9375 87.3775L37.9187 96.7065Z" fill="white"/>
<path d="M59.1281 87.3279L87.2686 87.3855L87.2495 96.7142L59.1093 96.6569L59.1281 87.3279Z" fill="white"/>
<path d="M96.596 58.751L96.5193 96.7331L87.2495 96.7142L87.3262 58.7321L96.596 58.751Z" fill="white"/>
<path d="M87.3659 37.835L87.4232 9.51501L96.693 9.53398L96.6357 37.8542L87.3659 37.835Z" fill="white"/>
<path d="M58.9708 0.127808L96.7118 0.204994L96.693 9.53396L58.952 9.45679L58.9708 0.127808Z" fill="white"/>
<path d="M37.7638 9.41336L9.6236 9.35584L9.64244 0.0268555L37.7826 0.0844031L37.7638 9.41336Z" fill="white"/>
<path d="M0.296021 37.9902L0.372716 0.00793457L9.64244 0.0268915L9.56577 38.0091L0.296021 37.9902Z" fill="white"/>
<path d="M45.545 51.6109C47.1918 53.2226 49.825 53.1855 51.4264 51.5282C53.0278 49.8708 52.991 47.2208 51.3442 45.6092C49.6973 43.9975 47.0641 44.0346 45.4627 45.6919C43.8613 47.3493 43.8981 49.9993 45.545 51.6109Z" fill="white"/>
</g>
<defs>
<clipPath id="clip0_32_128">
<rect width="97" height="97" fill="white"/>
</clipPath>
</defs>
</svg>
