<svg width="86" height="86" viewBox="0 0 86 86" fill="none" xmlns="http://www.w3.org/2000/svg">
<g clip-path="url(#clip0_15_389)">
<path d="M61.1596 58.825L64.6641 55.3347L52.3811 43.0013L48.8766 46.4917L61.1596 58.825Z" fill="#FF9100"/>
<path d="M55.3188 64.6424L58.8233 61.152L46.5403 48.8187L43.0358 52.3091L55.3188 64.6424Z" fill="#FF9100"/>
<path d="M39.4838 37.0606L42.9883 33.5702L30.7053 21.2369L27.2008 24.7273L39.4838 37.0606Z" fill="#FF9100"/>
<path d="M33.6428 42.8778L37.1473 39.3874L24.8643 27.0541L21.3598 30.5445L33.6428 42.8778Z" fill="#FF9100"/>
<path d="M37.2543 46.5065L33.7875 43.0229L21.3712 55.3802L24.838 58.8638L37.2543 46.5065Z" fill="#FF9100"/>
<path d="M43.0324 52.3125L39.5656 48.8289L27.1492 61.1862L30.6161 64.6698L43.0324 52.3125Z" fill="#FF9100"/>
<path d="M58.8669 24.6919L55.4 21.2083L42.9837 33.5655L46.4506 37.0492L58.8669 24.6919Z" fill="#FF9100"/>
<path d="M64.645 30.4979L61.1782 27.0143L48.7619 39.3716L52.2287 42.8552L64.645 30.4979Z" fill="#FF9100"/>
<path d="M21.3599 30.5444L8.94805 42.9063L4.90201 38.8434L17.3138 26.4817L21.3599 30.5444Z" fill="#D46363"/>
<path d="M17.2871 59.4568L0.813409 42.9156L4.90204 38.8434L21.3757 55.3846L17.2871 59.4568Z" fill="#D46363"/>
<path d="M30.6658 64.6314L42.9488 76.9648L38.8602 81.0367L26.5772 68.7036L30.6658 64.6314Z" fill="#D46363"/>
<path d="M59.5528 68.5202L42.9064 85.0995L38.8602 81.0367L55.5066 64.4574L59.5528 68.5202Z" fill="#D46363"/>
<path d="M64.6641 55.3346L77.076 42.9729L81.1221 47.0357L68.7102 59.3975L64.6641 55.3346Z" fill="#D56363"/>
<path d="M68.7371 26.4225L85.2107 42.9636L81.1221 47.0357L64.6485 30.4946L68.7371 26.4225Z" fill="#D56363"/>
<path d="M55.4 21.2083L43.1171 8.87498L47.2057 4.80286L59.4886 17.1361L55.4 21.2083Z" fill="#D46363"/>
<path d="M26.5131 17.3194L43.1595 0.740089L47.2057 4.80283L30.5593 21.3822L26.5131 17.3194Z" fill="#D46363"/>
<path d="M40.3469 43.0682C40.3623 44.4934 41.5302 45.6289 42.9555 45.6045C44.3808 45.58 45.5238 44.4048 45.5084 42.9796C45.4931 41.5544 44.3251 40.4189 42.8998 40.4433C41.4745 40.4678 40.3315 41.643 40.3469 43.0682Z" fill="#D46363"/>
</g>
<defs>
<clipPath id="clip0_15_389">
<rect width="60" height="60" fill="white" transform="translate(43 0.573608) rotate(45)"/>
</clipPath>
</defs>
</svg>
